<svg width="48" height="48" xmlns="http://www.w3.org/2000/svg">

 <title/>
 <g>
  <title>background</title>
  <rect fill="none" id="canvas_background" height="402" width="582" y="-1" x="-1"/>
 </g>
 <g>
  <title>Layer 1</title>
  <path fill="#657786" id="svg_1" d="m24,28a12,12 0 1 1 12,-12a12,12 0 0 1 -12,12zm0,-22a10,10 0 1 0 10,10a10,10 0 0 0 -10,-10z" class="cls-1"/>
  <path fill="#657786" id="svg_2" d="m40.931034,44l-33.949999,0a1,1 0 0 1 -0.73,-0.310001a1,1 0 0 1 -0.27,-0.75a18,18 0 0 1 35.9,0a1,1 0 0 1 -0.27,0.75a1,1 0 0 1 -0.68,0.310001zm-32.85,-2l31.699999,0a16,16 0 0 0 -31.699999,0z" class="cls-1"/>
  <path opacity="0.35" fill="#55aae1" id="svg_4" d="m30.709999,7.29a11,11 0 0 1 -15.419999,15.419999a11,11 0 1 0 15.419999,-15.419999z" class="cls-1"/>
  <path opacity="0.35" fill="#55aae1" id="svg_6" d="m32,29a16.870001,16.870001 0 0 1 4.810001,9.82a1,1 0 0 1 -1,1.150002l-28.300001,0a16.450001,16.450001 0 0 0 -0.46,3l33.95,0a17,17 0 0 0 -9,-13.970001z" class="cls-1"/>
 </g>
</svg>