<svg width="128" height="128" xmlns="http://www.w3.org/2000/svg">

 <g>
  <title>background</title>
  <rect fill="none" id="canvas_background" height="402" width="582" y="-1" x="-1"/>
 </g>
 <g>
  <title>Layer 1</title>
  <path fill="#53626c" clip-rule="evenodd" fill-rule="evenodd" id="XMLID_13_" d="m4.2,0.1l119.8,0c2.199997,0 4,1.8 4,4l0,101.800002c0.100006,0.299995 0.100006,0.599998 0,0.799995l0,17.100006c0,2.199997 -1.800003,4 -4,4l-119.8,0c-2.2,0 -4,-1.800003 -4,-4l0,-13.800003c-0.3,-0.599998 -0.3,-1.300003 0,-1.800003l0,-104.099997c0.1,-2.2 1.9,-4 4,-4l0,0zm68.399999,85.499998l20.300003,-16.400002c0.799995,-0.699997 2,-0.599998 2.699997,0.200005l28.400002,31.799995l0,-96.999997l-119.8,0l0,99.600003l40.500001,-44.800003c0.399998,-0.400002 0.899998,-0.700001 1.5,-0.700001c0.599998,0 1.099998,0.200001 1.5,0.600002l24.899998,26.699997l0,0zm51.400002,21.5l-30.099998,-33.699997l-20.300003,16.400002c-0.799995,0.699997 -2,0.599998 -2.699997,-0.200005l-24.600002,-26.299999l-41.999999,46.399998l0,14.200005l119.7,0l0,-16.800003l0,0zm-28.099998,-90.599998c-8.599998,0 -15.599998,7 -15.599998,15.599998c0,8.600002 7,15.600002 15.599998,15.600002c8.599998,0 15.599998,-7 15.599998,-15.600002c0.099998,-8.699999 -6.900002,-15.599998 -15.599998,-15.599998l0,0zm0,3.9c-6.400002,0 -11.700005,5.200001 -11.700005,11.699999c0,6.400002 5.200005,11.700001 11.700005,11.700001c6.400002,0 11.699997,-5.200001 11.699997,-11.700001c0,-6.499998 -5.199997,-11.699999 -11.699997,-11.699999z" class="st0"/>
  <path fill="#657786" clip-rule="evenodd" fill-rule="evenodd" id="XMLID_10_" d="m72.599998,85.599998l20.300003,-16.400002c0.799995,-0.699997 2,-0.599998 2.699997,0.200005l28.400002,31.799995l0,-96.999997l-119.8,0l0,99.600003l40.500001,-44.800003c0.399998,-0.400002 0.899998,-0.700001 1.5,-0.700001c0.599998,0 1.099998,0.200001 1.5,0.600002l24.899998,26.699997l0,0zm23.300003,-69.099998c8.599998,0 15.599998,7 15.599998,15.599998c0,8.600002 -7,15.600002 -15.599998,15.600002c-8.599998,0 -15.599998,-7 -15.599998,-15.600002c0,-8.699999 7,-15.599998 15.599998,-15.599998z" class="st1"/>
 </g>
</svg>